<svg width="316" height="97" viewBox="0 0 316 97" fill="none" xmlns="http://www.w3.org/2000/svg">
<mask id="path-1-inside-1_7_50" fill="white">
<path fill-rule="evenodd" clip-rule="evenodd" d="M297 0H0V97H297V71H316V25H297V0Z"/>
</mask>
<path fill-rule="evenodd" clip-rule="evenodd" d="M297 0H0V97H297V71H316V25H297V0Z" fill="#FFD166"/>
<path d="M0 0V-6H-6V0H0ZM297 0H303V-6H297V0ZM0 97H-6V103H0V97ZM297 97V103H303V97H297ZM297 71V65H291V71H297ZM316 71V77H322V71H316ZM316 25H322V19H316V25ZM297 25H291V31H297V25ZM0 6H297V-6H0V6ZM6 97V0H-6V97H6ZM297 91H0V103H297V91ZM291 71V97H303V71H291ZM316 65H297V77H316V65ZM310 25V71H322V25H310ZM297 31H316V19H297V31ZM291 0V25H303V0H291Z" fill="#FFD166" mask="url(#path-1-inside-1_7_50)"/>
</svg>
